<?xml version="1.0" encoding="iso-8859-1"?>
<!-- Generator: Adobe Illustrator 18.0.0, SVG Export Plug-In . SVG Version: 6.00 Build 0)  -->
<!DOCTYPE svg PUBLIC "-//W3C//DTD SVG 1.1//EN" "http://www.w3.org/Graphics/SVG/1.1/DTD/svg11.dtd">
<svg version="1.1" id="Capa_1" xmlns="http://www.w3.org/2000/svg" xmlns:xlink="http://www.w3.org/1999/xlink" x="0px" y="0px"
	 viewBox="0 0 380.515 380.515" style="enable-background:new 0 0 380.515 380.515;" xml:space="preserve">
<g>
	<path d="M267.365,276.854c-23.459-45.125-51.279-111.031-53.021-172.332c3.713-4.994,5.913-11.174,5.913-17.861
		c0-16.542-13.458-30-30-30s-30,13.458-30,30c0,6.687,2.2,12.867,5.913,17.861c-0.827,29.132-7.551,59.3-16.892,87.789
		c-0.15,0.385-0.279,0.775-0.38,1.172c-10.264,31.016-23.591,59.985-35.749,83.371c-0.805,1.547-1.609,3.08-2.414,4.599
		c-0.006,0.014-0.014,0.026-0.02,0.039c-25.705,48.556-50.998,82.699-51.26,83.049c-2.258,3.033-2.612,7.081-0.915,10.461
		c1.697,3.379,5.154,5.513,8.936,5.513h72.78c5.522,0,10-4.477,10-10c0-22.056,17.944-40,40-40s40,17.944,40,40
		c0,5.523,4.477,10,10,10h72.78c3.781,0,7.238-2.134,8.936-5.513c1.697-3.379,1.343-7.427-0.915-10.461
		C320.789,364.181,293.883,327.86,267.365,276.854z M163.271,213.411l11.813,10.408l-24.797,21.848
		C155.093,234.705,159.424,223.95,163.271,213.411z M190.258,116.661c1.586,0,3.144-0.126,4.664-0.364
		c1.723,23.887,6.844,49.441,15.332,76.532l-20.043,17.661l-19.971-17.596c8.502-27.115,13.63-52.692,15.354-76.598
		C187.114,116.536,188.672,116.661,190.258,116.661z M190.21,237.146l44.086,38.844h-88.171L190.21,237.146z M205.337,223.818
		l11.884-10.471c3.869,10.603,8.229,21.425,13.067,32.455L205.337,223.818z"/>
	<path d="M263.082,19.377c27.945,10.385,46.757,37.394,46.81,67.209c0.053,29.814-18.664,56.889-46.572,67.372
		c-5.17,1.942-7.787,7.708-5.845,12.878c1.507,4.012,5.315,6.486,9.363,6.486c1.168,0,2.356-0.207,3.515-0.642
		c35.679-13.402,59.605-48.015,59.539-86.13c-0.068-38.116-24.117-72.646-59.843-85.921c-5.178-1.925-10.934,0.712-12.857,5.89
		C255.267,11.697,257.905,17.453,263.082,19.377z"/>
	<path d="M234.518,56.085c12.72,4.728,21.283,17.023,21.307,30.597c0.024,13.571-8.495,25.896-21.199,30.668
		c-5.17,1.942-7.787,7.708-5.845,12.878c1.507,4.013,5.316,6.486,9.363,6.486c1.168,0,2.357-0.207,3.515-0.642
		c20.476-7.692,34.206-27.555,34.166-49.427c-0.038-21.873-13.839-41.688-34.34-49.308c-5.175-1.922-10.933,0.711-12.856,5.89
		C226.704,48.404,229.341,54.161,234.518,56.085z"/>
	<path d="M110.163,172.681c1.158,0.435,2.347,0.642,3.515,0.642c4.047,0,7.857-2.475,9.363-6.486
		c1.942-5.17-0.675-10.936-5.845-12.878C89.288,143.475,70.571,116.4,70.624,86.586c0.053-29.815,18.864-56.825,46.81-67.209
		c5.177-1.924,7.814-7.68,5.891-12.857c-1.924-5.177-7.68-7.815-12.857-5.89C74.741,13.906,50.692,48.435,50.624,86.551
		C50.557,124.666,74.484,159.279,110.163,172.681z"/>
	<path d="M104.69,86.645c-0.04,21.872,13.69,41.735,34.166,49.427c1.158,0.435,2.347,0.642,3.515,0.642
		c4.047,0,7.856-2.475,9.363-6.486c1.942-5.17-0.675-10.936-5.845-12.878c-12.704-4.772-21.224-17.097-21.199-30.669
		c0.023-13.573,8.587-25.868,21.307-30.596c5.178-1.924,7.814-7.681,5.89-12.857c-1.924-5.177-7.685-7.813-12.856-5.89
		C118.529,44.957,104.728,64.773,104.69,86.645z"/>
</g>
<g>
</g>
<g>
</g>
<g>
</g>
<g>
</g>
<g>
</g>
<g>
</g>
<g>
</g>
<g>
</g>
<g>
</g>
<g>
</g>
<g>
</g>
<g>
</g>
<g>
</g>
<g>
</g>
<g>
</g>
</svg>
